<svg xmlns="http://www.w3.org/2000/svg" viewBox="0 0 330 380" role="img" aria-labelledby="title">
  <title id="title">Galata ve Karaköy soyut haritası</title>
  <rect width="330" height="380" fill="none"/>
  <g fill="none" stroke="#111" stroke-opacity=".2" stroke-width="1.7">
    <path d="M68 305c47-34 77-67 95-112 19-49 21-96 40-144"/>
    <path d="M42 276c58-36 95-68 125-120 20-35 41-72 67-105"/>
    <path d="M81 334c56-41 100-73 154-82"/>
    <path d="M118 342c25-69 40-133 42-213"/>
    <path d="M170 345c1-58-8-116-30-174"/>
    <path d="M218 324c-23-58-43-108-49-169"/>
    <path d="M53 233c74 0 140 11 223 33"/>
    <path d="M73 199c64 5 139 9 204 31"/>
    <path d="M93 161c48 17 105 25 169 27"/>
    <path d="M127 119c45 15 86 22 131 22"/>
    <path d="M188 67c34 18 59 26 90 29"/>
    <path d="M31 315c58-39 113-57 183-60"/>
  </g>
  <g fill="#111" font-family="Inter, Arial, sans-serif" font-size="13" letter-spacing="5">
    <text x="218" y="78">GALATA</text>
    <text x="182" y="344">KARAKOY</text>
  </g>
  <circle cx="169" cy="214" r="8" fill="#b88434"/>
  <circle cx="169" cy="214" r="22" fill="none" stroke="#b88434" stroke-opacity=".22" stroke-width="2"/>
</svg>
